<svg width="25" height="26" viewBox="0 0 25 26" fill="none" xmlns="http://www.w3.org/2000/svg">
<path d="M10.1673 15.4654C9.56838 14.8675 9.2038 14.055 9.2038 13.1435C9.2038 11.3175 10.6746 9.84561 12.4996 9.84561C13.4028 9.84561 14.234 10.2112 14.8225 10.8092" stroke="#696F79" stroke-width="1.5" stroke-linecap="round" stroke-linejoin="round"/>
<path d="M15.7342 13.728C15.4925 15.0718 14.4342 16.1322 13.0915 16.3759" stroke="#696F79" stroke-width="1.5" stroke-linecap="round" stroke-linejoin="round"/>
<path d="M6.9319 18.7003C5.27878 17.4024 3.87878 15.5066 2.8642 13.143C3.8892 10.7691 5.29857 8.86282 6.96211 7.55449C8.61524 6.24615 10.5225 5.53574 12.4996 5.53574C14.4882 5.53574 16.3944 6.25657 18.0579 7.57428" stroke="#696F79" stroke-width="1.5" stroke-linecap="round" stroke-linejoin="round"/>
<path d="M20.258 9.86542C20.9746 10.8175 21.6048 11.9165 22.135 13.1425C20.0861 17.8894 16.4652 20.7488 12.4996 20.7488C11.6007 20.7488 10.7142 20.6029 9.86212 20.3185" stroke="#696F79" stroke-width="1.5" stroke-linecap="round" stroke-linejoin="round"/>
<path d="M20.7157 4.92667L4.28442 21.3579" stroke="#696F79" stroke-width="1.5" stroke-linecap="round" stroke-linejoin="round"/>
</svg>
