<?xml version="1.0" encoding="utf-8"?><svg viewBox="0 0 25 25" xmlns="http://www.w3.org/2000/svg" xmlns:xlink="http://www.w3.org/1999/xlink"><style>:root>svg{display:none}:root>svg:target{display:block}</style><svg viewBox="0 0 24 24" id="input-error" xmlns="http://www.w3.org/2000/svg"><path fill-rule="evenodd" clip-rule="evenodd" d="M2 12C2 6.478 6.478 2 12 2c5.523 0 10 4.478 10 10 0 5.523-4.477 10-10 10-5.522 0-10-4.477-10-10zm18.5 0a8.5 8.5 0 10-17 0 8.5 8.5 0 0017 0zm-8.505-4.546a.75.75 0 01.743.649l.007.101v4.42a.75.75 0 01-1.493.101l-.007-.102V8.204a.75.75 0 01.75-.75zm.76 8.342a.75.75 0 00-.75-.75l-.112.007a.75.75 0 00.102 1.493l.112-.007a.75.75 0 00.648-.743z"/></svg><svg viewBox="0 0 25 25" id="pass-close" xmlns="http://www.w3.org/2000/svg"><path fill-rule="evenodd" clip-rule="evenodd" d="M21.269 3.871a.79.79 0 00-1.105 0l-2.175 2.14c-1.68-1.154-3.556-1.766-5.489-1.766-2.142 0-4.221.75-6.022 2.153-1.78 1.377-3.262 3.363-4.33 5.798a.758.758 0 00-.001.608c.922 2.115 2.161 3.89 3.639 5.217l-2.053 2.02-.076.087a.76.76 0 00.076 1.001c.305.3.8.3 1.104 0L21.27 4.959l.075-.087a.76.76 0 00-.075-1zM6.892 16.932l2.227-2.191a3.92 3.92 0 01-.696-2.24c0-2.221 1.82-4.014 4.077-4.014a4.11 4.11 0 012.278.684l2.086-2.052c-1.362-.879-2.847-1.336-4.364-1.336-1.78 0-3.52.628-5.054 1.822-1.469 1.137-2.728 2.77-3.678 4.791l-.049.105.048.104c.826 1.765 1.89 3.232 3.125 4.327zm6.747-6.64a2.542 2.542 0 00-1.139-.268c-1.393 0-2.514 1.105-2.514 2.477 0 .4.094.78.271 1.12l3.382-3.329zm2.128 2.016l.106.012a.77.77 0 01.63.893c-.299 1.638-1.608 2.929-3.271 3.226a.78.78 0 01-.909-.62.77.77 0 01.63-.893 2.488 2.488 0 002.013-1.986.779.779 0 01.801-.632zm4.022-3.647a.79.79 0 011.094.152 16.446 16.446 0 011.97 3.382.758.758 0 010 .61c-2.164 4.933-6.046 7.95-10.353 7.95a9.23 9.23 0 01-2.885-.463.766.766 0 01-.493-.973.784.784 0 01.988-.486 7.641 7.641 0 002.39.384c3.443 0 6.647-2.356 8.618-6.373l.162-.342-.055-.122a14.94 14.94 0 00-1.34-2.303l-.25-.34a.76.76 0 01.154-1.076z"/></svg><svg viewBox="0 0 25 25" id="pass-open" xmlns="http://www.w3.org/2000/svg"><path fill-rule="evenodd" clip-rule="evenodd" d="M12.8 4.172l-.298-.005c-4.313 0-8.2 3.045-10.355 8.027a.772.772 0 000 .612l.15.337c2.126 4.662 5.803 7.549 9.903 7.685l.298.005c4.313 0 8.2-3.045 10.355-8.027a.772.772 0 00-.003-.62l-.145-.326c-2.132-4.672-5.81-7.552-9.905-7.688zm-.29 1.546l.248.005.279.015c3.33.236 6.393 2.705 8.243 6.761l-.01.025c-1.896 4.143-5.065 6.627-8.5 6.752l-.266.004-.268-.004-.277-.014c-3.227-.229-6.202-2.56-8.064-6.387l-.176-.376.163-.347c1.963-4.055 5.172-6.433 8.627-6.434zm-.01 2.733c-2.25 0-4.074 1.813-4.074 4.05 0 2.235 1.823 4.047 4.074 4.047 2.25 0 4.075-1.812 4.075-4.048 0-2.236-1.825-4.049-4.075-4.049zm0 1.553a2.504 2.504 0 012.512 2.496 2.504 2.504 0 01-2.512 2.495A2.503 2.503 0 019.988 12.5a2.503 2.503 0 012.512-2.496z"/></svg><svg viewBox="0 0 16 16" id="search" xmlns="http://www.w3.org/2000/svg"><path d="M7.333 12.585c2.946 0 5.334-2.346 5.334-5.24s-2.388-5.24-5.334-5.24C4.388 2.105 2 4.451 2 7.345s2.388 5.24 5.333 5.24zM14 13.895l-2.9-2.85"/></svg></svg>