<?xml version="1.0" encoding="utf-8"?><svg viewBox="0 0 25 26" xmlns="http://www.w3.org/2000/svg" xmlns:xlink="http://www.w3.org/1999/xlink"><style>:root>svg{display:none}:root>svg:target{display:block}</style><svg viewBox="0 0 25 26" id="pass-open" xmlns="http://www.w3.org/2000/svg"><path d="M10.167 15.465a3.254 3.254 0 01-.963-2.322A3.29 3.29 0 0112.5 9.846c.903 0 1.734.365 2.322.963m.912 2.919a3.29 3.29 0 01-2.643 2.648"/><path d="M6.932 18.7c-1.653-1.298-3.053-3.193-4.068-5.557C3.89 10.769 5.3 8.863 6.962 7.554c1.653-1.308 3.56-2.018 5.538-2.018 1.988 0 3.894.72 5.558 2.038m2.2 2.291a16.002 16.002 0 011.877 3.277c-2.049 4.747-5.67 7.607-9.635 7.607a8.313 8.313 0 01-2.638-.43M20.716 4.927L4.284 21.357"/></svg></svg>